<svg xmlns="http://www.w3.org/2000/svg"
     viewBox="0 35 900 170"
     role="img"
     aria-label="Zummee Management Assistant">
  <!-- Zummee wordmark -->
  <text x="50"
        y="130"
        fill="#173a56"
        font-family="Inter, system-ui, -apple-system, Segoe UI, Arial, sans-serif"
        font-size="120"
        font-weight="800"
        letter-spacing="2">Zummee</text>

  <!-- Skyline running across letters -->
  <path d="
    M40 155
    L90 155 L90 120 L120 120 L120 155
    L170 155 L170 105 L210 105 L210 155
    L260 155 L260 115 L300 115 L300 155
    L350 155 L350 95 L400 95 L400 155
    L450 155 L450 125 L490 125 L490 155
    L540 155 L540 110 L580 110 L580 155
    L630 155 L630 120 L670 120 L670 155
    L720 155 L720 130 L760 130 L760 155
    L820 155"
    fill="none"
    stroke="#173a56"
    stroke-width="4"
    opacity="0.45"/>

  <!-- Subtitle -->
  <text x="55"
        y="200"
        fill="#173a56"
        font-family="Inter, system-ui, -apple-system, Segoe UI, Arial, sans-serif"
        font-size="40"
        font-weight="600"
        letter-spacing="3"
        opacity="0.85">MANAGEMENT ASSISTANT</text>
</svg>
